# xmcd
#
# Track frame offsets: 
#        150
#        28607
#        42601
#        57619
#        66940
#        79213
#        94141
#        103138
#        130326
#        144298
#        164373
#        198173
#        216392
#        231397
#
# Disc length: 3799 seconds
#
# Revision: 3
# Processed by: cddbd v1.5.2PL0 Copyright (c) Steve Scherf et al.
# Submitted via: ExactAudioCopy v0.95b4
#
DISCID=d50ed50e
DTITLE=Memphis Slim - Paris Mississippi Blues Disc 2
DYEAR=2005
DGENRE=Blues
TTITLE0=When Buddy Comes To Town (With Buddy Guy)
TTITLE1=My Dog Is Mean
TTITLE2=Raining In My Heart (With Sonny Criss)
TTITLE3=I've Got The Blues
TTITLE4=Shake That Thing (With Charlie McCoy)
TTITLE5=You're The One (Alternate Vocals By Buddy Guy)
TTITLE6=Thats The Way The Cookie Crumbles
TTITLE7=Rolling And Tumbling (With Buddy Guy)
TTITLE8=Black Cat Cross My Trail (With Canned Heat)
TTITLE9=Ottis Spann And Earl Hooker (With Peter Green)
TTITLE10=Didn't We Babe - Montreux Boogie Woogie (With Freddy King)
TTITLE11=Everyday I Have The Blues (With Freddy King)
TTITLE12=Loosers Weepers
TTITLE13=The Prodigal Son
EXTD=
EXTT0=
EXTT1=
EXTT2=
EXTT3=
EXTT4=
EXTT5=
EXTT6=
EXTT7=
EXTT8=
EXTT9=
EXTT10=
EXTT11=
EXTT12=
EXTT13=
PLAYORDER=
